<?xml version="1.0" encoding="UTF-8" standalone="no"?>
<svg width="22px" height="20px" viewBox="0 0 22 20" version="1.1" xmlns="http://www.w3.org/2000/svg" xmlns:xlink="http://www.w3.org/1999/xlink" xmlns:sketch="http://www.bohemiancoding.com/sketch/ns">
    <!-- Generator: Sketch 3.3.2 (12043) - http://www.bohemiancoding.com/sketch -->
    <title>shopping-basket</title>
    <desc>Created with Sketch.</desc>
    <defs></defs>
    <g id="Page-1" stroke="none" stroke-width="1" fill="none" fill-rule="evenodd" sketch:type="MSPage">
        <g id="shopping-basket" sketch:type="MSLayerGroup" fill="#FFFFFF">
            <path d="M16.2,7 L11.8,0.4 C11.6,0.2 11.3,0 11,0 C10.7,0 10.4,0.1 10.2,0.4 L5.8,7 L1,7 C0.4,7 0,7.4 0,8 L0,8.3 L2.5,17.6 C2.7,18.4 3.5,19.1 4.4,19.1 L17.4,19.1 C18.3,19.1 19.1,18.5 19.3,17.6 L21.8,8.3 L21.8,8 C21.8,7.4 21.4,7 20.8,7 L16.2,7 L16.2,7 Z M8,7 L11,2.6 L14,7 L8,7 L8,7 Z M11,15 C9.9,15 9,14.1 9,13 C9,11.9 9.9,11 11,11 C12.1,11 13,11.9 13,13 C13,14.1 12.1,15 11,15 L11,15 Z" id="Shape" sketch:type="MSShapeGroup"></path>
        </g>
    </g>
</svg>