<svg width="32" height="32" viewBox="0 0 32 32" xmlns="http://www.w3.org/2000/svg"><title>statusIcon</title><g fill="none" fill-rule="evenodd"><path d="M16.534 31.99c-.177.007-.355.01-.534.01-8.837 0-16-7.163-16-16S7.163 0 16 0s16 7.163 16 16c0 .18-.003.357-.01.534.007.09.01.178.01.268v11.196C32 30.21 30.208 32 27.998 32H16.802c-.09 0-.18-.003-.268-.01zM16 28.8c7.07 0 12.8-5.73 12.8-12.8S23.07 3.2 16 3.2 3.2 8.93 3.2 16 8.93 28.8 16 28.8z" fill="#000"/><path stroke="#000" stroke-width=".5" d="M14.5 14.5h3v3h-3z"/></g></svg>