<svg xmlns="http://www.w3.org/2000/svg"><path fill="#fff" d="M6.795 8L2 16.5 4.014 18 9 9.4 6.795 8zM1.9 17L4 18.5 1 21l.9-4zM7 7.316L9.486 9 11 6.684 8.405 5 7 7.316zm2-2.65L10.75 6s.25-.57.25-.952c-.083-.38-.5-.762-.5-.762S10.083 4 9.75 4c-.5 0-.75.667-.75.667zM0 11v4h1.674L4 11H0zm9.708 0L7 15h10l-2.604-4H9.708zM18 11l2.083 4H23v-4h-5zm-1.76 2l1.76-.998s-3.416-6.49-5.59-9.784C10.753-.377 10.132.022 10.132.022s-.62.1.828 3.095C14.066 10.005 16.24 13 16.24 13zm2.415 0L17 14.143 18.552 17 20 15.97 18.655 13zm1.744 3l-1.4.867s.9 3.357 1.9 4.765c.5.76 1.498.11 1.498.11s.9-.65.5-1.518c-1.4-2.924-2.5-4.224-2.5-4.224z"/></svg>