<?xml version="1.0" encoding="UTF-8" standalone="no"?>
<svg width="839px" height="482px" viewBox="0 0 839 482" version="1.1" xmlns="http://www.w3.org/2000/svg" xmlns:xlink="http://www.w3.org/1999/xlink" xmlns:sketch="http://www.bohemiancoding.com/sketch/ns">
    <!-- Generator: Sketch 3.2.2 (9983) - http://www.bohemiancoding.com/sketch -->
    <title>Clipped</title>
    <desc>Created with Sketch.</desc>
    <defs></defs>
    <g id="Page-1" stroke="none" stroke-width="1" fill="none" fill-rule="evenodd" sketch:type="MSPage">
        <g id="Clipped" sketch:type="MSLayerGroup" transform="translate(1.000000, 1.000000)" stroke="#666666">
            <path d="M753.039541,454.191176 L84.8389557,454.191176 C82.0953085,454.191176 79.2430633,451.228676 79.2430633,448.486324 L79.2430633,19.5189706 C79.2430633,8.55088235 88.7679114,0.220588235 99.7429415,0.220588235 L738.136438,0.220588235 C749.111468,0.220588235 757.760027,8.55088235 757.760027,19.5189706 L757.760027,448.486324 C757.760027,451.228676 755.784071,454.191176 753.040424,454.191176 L753.039541,454.191176 Z" id="Shape" sketch:type="MSShapeGroup"></path>
            <path d="M3.27118671,470.073529 C7.9475269,474.485294 23.4134858,479.779412 47.9994778,479.779412 L789.768655,479.779412 C814.354647,479.779412 829.73982,474.485294 834.387907,470.073529 L3.26809652,470.073529 L3.27118671,470.073529 Z" id="Shape" sketch:type="MSShapeGroup"></path>
            <path d="M836.779272,469.080882 C836.779272,469.629265 836.334285,470.073971 835.785555,470.073971 L1.21356171,470.073971 C0.664832278,470.073971 0.219844937,469.629265 0.219844937,469.080882 L0.219844937,455.184265 C0.219844937,454.635882 0.664832278,454.191618 1.21356171,454.191618 L835.785555,454.191618 C836.334285,454.191618 836.779272,454.635882 836.779272,455.184265 L836.779272,469.080882 L836.779272,469.080882 Z" id="Shape" sketch:type="MSShapeGroup"></path>
            <path d="M468.410981,462.573529 L369.260915,462.573529 C364.420794,462.573529 360.4499,459.028235 360.4499,454.191176 L476.994204,454.191176 C476.994204,459.028235 473.251101,462.573529 468.410981,462.573529 L468.410981,462.573529 Z" id="Shape" sketch:type="MSShapeGroup"></path>
            <path d="M422.027231,14.3797059 C422.027231,12.5523529 420.544823,11.0708824 418.716313,11.0708824 C416.887804,11.0708824 415.405396,12.5523529 415.405396,14.3797059 C415.405396,16.2070588 416.887804,17.6885294 418.716313,17.6885294 C420.544823,17.6885294 422.027231,16.2070588 422.027231,14.3797059 L422.027231,14.3797059 Z" id="Shape" sketch:type="MSShapeGroup"></path>
        </g>
    </g>
</svg>