<?xml version="1.0" encoding="utf-8"?>
<!-- Generator: Adobe Illustrator 16.0.0, SVG Export Plug-In . SVG Version: 6.00 Build 0)  -->
<!DOCTYPE svg PUBLIC "-//W3C//DTD SVG 1.1//EN" "http://www.w3.org/Graphics/SVG/1.1/DTD/svg11.dtd">
<svg version="1.1" id="Layer_1" xmlns="http://www.w3.org/2000/svg" xmlns:xlink="http://www.w3.org/1999/xlink" x="0px" y="0px"
	 width="38px" height="42px" viewBox="0 0 38 42" style="enable-background:new 0 0 38 42;" xml:space="preserve">
<style type="text/css">
<![CDATA[
	.st0{fill-rule:evenodd;clip-rule:evenodd;fill:#1C315E;}
	.st1{opacity:0.5;}
	.st2{fill-rule:evenodd;clip-rule:evenodd;fill:#FFFFFF;}
]]>
</style>
<g>
	<g class="st1">
		<polygon class="st0" points="14,16.9 9,25.4 11.1,26.9 16.3,18.3 		"/>
		<polygon class="st0" points="8.5,26.3 10.6,27.8 7.6,30.3 		"/>
		<polygon class="st0" points="14.4,16.1 16.7,17.7 18.1,15.5 15.7,13.9 		"/>
		<path class="st0" d="M16,13.7l2.1,1.4c0,0,0.3-0.6,0.3-1c-0.1-0.4-0.6-0.8-0.6-0.8s-0.5-0.3-0.9-0.3C16.3,13,16,13.7,16,13.7z"/>
		<polygon class="st0" points="7.1,19.8 7.1,24 8.9,24 11.4,19.8 		"/>
		<polygon class="st0" points="16.5,19.8 13.9,24 23.5,24 21,19.8 		"/>
		<polygon class="st0" points="25.1,19.8 27.1,24 29.9,24 29.9,19.8 		"/>
		<path class="st0" d="M23.3,22.1l1.7-1c0,0-3.3-6.5-5.4-9.8c-1.6-2.6-2.2-2.2-2.2-2.2s-0.6,0.1,0.8,3.1
			C21.2,19.1,23.3,22.1,23.3,22.1z"/>
		<polygon class="st0" points="25.3,21.8 23.7,22.8 25.2,25.3 26.6,24.4 		"/>
		<path class="st0" d="M27,25.1l-1.4,0.8c0,0,0.9,3.1,1.9,4.4C28,31,29,30.4,29,30.4s0.9-0.6,0.5-1.4C28.1,26.3,27,25.1,27,25.1z"/>
		<path class="st0" d="M0,21.8c0,10.5,8.5,19,19,19s19-8.5,19-19s-8.5-19-19-19S0,11.3,0,21.8z M3,21.8c0-8.8,7.2-16,16-16
			s16,7.2,16,16s-7.2,16-16,16S3,30.6,3,21.8z"/>
	</g>
	<g>
		<g>
			<g>
				<polygon class="st2" points="14,17.9 9,26.4 11.1,27.9 16.3,19.3 				"/>
				<polygon class="st2" points="8.5,27.3 10.6,28.8 7.6,31.3 				"/>
				<polygon class="st2" points="14.4,17.1 16.7,18.7 18.1,16.5 15.7,14.9 				"/>
				<path class="st2" d="M16,14.7l2.1,1.4c0,0,0.3-0.6,0.3-1c-0.1-0.4-0.6-0.8-0.6-0.8s-0.5-0.3-0.9-0.3C16.3,14,16,14.7,16,14.7z"
					/>
				<polygon class="st2" points="7.1,20.8 7.1,25 8.9,25 11.4,20.8 				"/>
				<polygon class="st2" points="16.5,20.8 13.9,25 23.5,25 21,20.8 				"/>
				<polygon class="st2" points="25.1,20.8 27.1,25 29.9,25 29.9,20.8 				"/>
				<path class="st2" d="M23.3,23.1l1.7-1c0,0-3.3-6.5-5.4-9.8c-1.6-2.6-2.2-2.2-2.2-2.2s-0.6,0.1,0.8,3.1
					C21.2,20.1,23.3,23.1,23.3,23.1z"/>
				<polygon class="st2" points="25.3,22.8 23.7,23.8 25.2,26.3 26.6,25.4 				"/>
				<path class="st2" d="M27,26.1l-1.4,0.8c0,0,0.9,3.1,1.9,4.4C28,32,29,31.4,29,31.4s0.9-0.6,0.5-1.4C28.1,27.3,27,26.1,27,26.1z"
					/>
			</g>
			<path class="st2" d="M0,22.8c0,10.5,8.5,19,19,19s19-8.5,19-19s-8.5-19-19-19S0,12.3,0,22.8z M3,22.8c0-8.8,7.2-16,16-16
				s16,7.2,16,16s-7.2,16-16,16S3,31.6,3,22.8z"/>
		</g>
	</g>
</g>
</svg>
